<?xml version="1.0" encoding="utf-8"?>
<!-- Generator: Adobe Illustrator 25.1.0, SVG Export Plug-In . SVG Version: 6.00 Build 0)  -->
<svg version="1.1" id="Calque_1" xmlns="http://www.w3.org/2000/svg" xmlns:xlink="http://www.w3.org/1999/xlink" x="0px" y="0px"
	 viewBox="0 0 823.08 109.32" style="enable-background:new 0 0 823.08 109.32;" xml:space="preserve">
<style type="text/css">
	.st0{fill:#B3C9C9;}
	.st1{fill:#8DB2B7;}
	.st2{fill:#667783;}
	.st3{fill:none;}
	.st4{enable-background:new    ;}
</style>
<g id="Calque_7">
	<path class="st0" d="M54.66,107.31c-29.08,0.4-52.98-22.85-53.38-51.93C0.88,26.3,24.13,2.4,53.21,2c0.48-0.01,0.97-0.01,1.45,0
		h713.76c29.08-0.4,52.98,22.85,53.38,51.93s-22.85,52.98-51.93,53.38c-0.48,0.01-0.97,0.01-1.45,0H54.66z"/>
	<path d="M768.42,4c27.94,0.08,50.58,22.71,50.66,50.65l0,0c-0.08,27.94-22.72,50.58-50.66,50.66H54.66
		C26.72,105.23,4.08,82.59,4,54.65l0,0C4.08,26.71,26.72,4.08,54.66,4H768.42 M768.42,0H54.66C24.47-0.41-0.33,23.73-0.73,53.92
		C-1.14,84.1,23,108.9,53.18,109.31c0.49,0.01,0.99,0.01,1.48,0h713.76c30.19,0.41,54.99-23.73,55.39-53.92
		C824.22,25.21,800.08,0.41,769.9,0C769.41-0.01,768.91-0.01,768.42,0z"/>
	<path d="M55.72,15.15h713.15c21.82,0,39.5,17.68,39.5,39.5v0.01c0,21.82-17.68,39.5-39.5,39.5H55.72c-21.82,0-39.5-17.68-39.5-39.5
		v-0.01C16.22,32.83,33.9,15.15,55.72,15.15z"/>
	<path class="st1" d="M56.88,20.74h709.31c18.73,0,33.92,15.19,33.92,33.92l0,0c0,18.73-15.19,33.92-33.92,33.92H56.88
		c-18.73,0-33.92-15.19-33.92-33.92l0,0C22.96,35.93,38.15,20.74,56.88,20.74z"/>
	<path class="st2" d="M68.6,54.65c-12.14,0-25.77,1.69-29.69,13.24c-4.14,12.15,6,18.69,2.72,17C30.2,79.12,22.99,67.41,22.96,54.61
		l0,0C23,35.89,38.16,20.73,56.88,20.69h709.31c18.72,0.04,33.88,15.2,33.92,33.92l0,0"/>
	<path class="st2" d="M754.48,54.65c12.13,0,25.76,1.69,29.69,13.24c4.13,12.15-6,18.69-2.73,17c11.43-5.77,18.64-17.48,18.67-30.28
		l0,0c-0.04-18.72-15.2-33.88-33.92-33.92H56.88C38.16,20.73,23,35.89,22.96,54.61l0,0"/>
</g>
<rect x="261.6" y="37.37" class="st3" width="537.28" height="180.73"/>
<g class="st4">
	<path d="M284.19,71.84l-2.07-6.88l-8.91,0.63l-1.48,6.79l-10.17-1.93l10.75-34.47l9.58,0.32L294.04,69L284.19,71.84z M277.04,48.03
		l-2.56,10.93l5.76-0.36L277.04,48.03z"/>
	<path d="M340.98,70.71L339.4,52.4l-5.76,14.71l-3.96,0.67l-4.64-14.44l-3.42,18l-9.31-2.21l7.15-32.85l7.06-0.23l5.71,16.65
		l6.84-16.56l7.47,0.77l5.49,33.3L340.98,70.71z"/>
	<path d="M354.39,71.97l0.72-35.1l10.48-0.18l-0.81,34.87L354.39,71.97z"/>
	<path d="M372.61,60.95c2.38,2.07,4.95,2.92,7.15,2.92c3.42,0,6.12-1.62,6.12-4.1c0-4.32-17.1-0.49-17.1-12.37
		c0-8.19,9.99-11.38,17.01-11.38c2.88,0,5.89,0.5,8.77,1.67l-3.1,7.96c-2.07-1.21-4.36-1.71-6.39-1.71c-3.42,0-6.21,1.44-6.21,3.55
		c0,4.54,17.91-0.18,17.91,13.27c0,6.53-7.47,11.02-15.43,11.02c-4.77,0-9.72-1.62-13.32-5.4L372.61,60.95z"/>
	<path d="M402.63,60.95c2.38,2.07,4.95,2.92,7.15,2.92c3.42,0,6.12-1.62,6.12-4.1c0-4.32-17.1-0.49-17.1-12.37
		c0-8.19,9.99-11.38,17.01-11.38c2.88,0,5.89,0.5,8.77,1.67l-3.1,7.96c-2.07-1.21-4.37-1.71-6.39-1.71c-3.42,0-6.21,1.44-6.21,3.55
		c0,4.54,17.91-0.18,17.91,13.27c0,6.53-7.47,11.02-15.43,11.02c-4.77,0-9.72-1.62-13.32-5.4L402.63,60.95z"/>
	<path d="M429.72,71.97l0.72-35.1l10.48-0.18l-0.81,34.87L429.72,71.97z"/>
	<path d="M443.62,54.02c0-9.72,7.06-18.13,16.38-18.13c9.5,0,16.47,8.05,16.47,18c0,9.45-7.25,17.86-16.6,17.86
		C450.6,71.75,443.62,63.6,443.62,54.02z M466.44,54.56c0-4.18-2.43-7.74-6.21-7.74c-4.05,0-6.88,3.69-6.88,7.88
		c0,4.27,2.11,7.65,6.75,7.65C464.14,62.34,466.44,58.7,466.44,54.56z"/>
	<path d="M501.58,71.57l-11.83-18.36l2.65,18l-12.28,1.4l-0.72-35.95l7.6,0.27l9.85,13.45l-2.02-14.71l11.07,1.26l1.26,34.11
		L501.58,71.57z"/>
	<path d="M531.37,71.84l-2.07-6.88l-8.91,0.63l-1.48,6.79l-10.17-1.93l10.75-34.47l9.58,0.32L541.23,69L531.37,71.84z M524.22,48.03
		l-2.56,10.93l5.76-0.36L524.22,48.03z"/>
	<path d="M559.63,71.25l-5.17-12.19l-2.7,0.36l0.63,11.92h-9.5l0.09-33.97c2.34-0.68,6.34-0.99,9.09-0.99
		c11.34,0,16.96,5.49,16.96,11.11c0,3.69-2.38,7.42-7.15,9.72l7.15,12.6L559.63,71.25z M551.49,53.16c4.59-0.04,6.93-2.34,6.93-4.59
		c0-2.02-1.93-4-5.85-4c-0.5,0-1.04,0-1.53,0.09L551.49,53.16z"/>
	<path d="M580.33,71.07l0.45-13.59L568.9,42.09l9.18-6.25l8.68,12.96l6.48-12.69l8.91,3.29L591.9,57.44l0.18,13.86L580.33,71.07z"/>
</g>
</svg>
