<svg xmlns="http://www.w3.org/2000/svg" viewBox="0 0 823.08 109.32"><defs><style>.cls-1{fill:#b3c9c9;}.cls-2{fill:#8db2b7;}.cls-3{fill:#667783;}</style></defs><g id="Calque_7" data-name="Calque 7"><path class="cls-1" d="M1046.33,1033.21a52.66,52.66,0,1,1,0-105.31h713.76a52.66,52.66,0,1,1,0,105.31Z" transform="translate(-991.67 -925.9)"/><path d="M1760.09,929.9a50.8,50.8,0,0,1,50.66,50.65h0a50.81,50.81,0,0,1-50.66,50.66H1046.33a50.81,50.81,0,0,1-50.66-50.66h0a50.8,50.8,0,0,1,50.66-50.65h713.76m0-4H1046.33a54.66,54.66,0,1,0,0,109.31h713.76a54.66,54.66,0,1,0,0-109.31Z" transform="translate(-991.67 -925.9)"/><rect x="16.22" y="15.15" width="792.15" height="79.01" rx="39.5"/><rect class="cls-2" x="22.96" y="20.74" width="777.15" height="67.84" rx="33.92"/><path class="cls-3" d="M1060.27,980.55c-12.14,0-25.77,1.69-29.69,13.24-4.14,12.15,6,18.69,2.72,17a34,34,0,0,1-18.67-30.28h0a34,34,0,0,1,33.92-33.92h709.31a34,34,0,0,1,33.92,33.92h0" transform="translate(-991.67 -925.9)"/><path class="cls-3" d="M1746.15,980.55c12.13,0,25.76,1.69,29.69,13.24,4.13,12.15-6,18.69-2.73,17a34,34,0,0,0,18.67-30.28h0a34,34,0,0,0-33.92-33.92H1048.55a34,34,0,0,0-33.92,33.92h0" transform="translate(-991.67 -925.9)"/></g></svg>