<?xml version="1.0" encoding="utf-8"?>
<!-- Generator: Adobe Illustrator 25.1.0, SVG Export Plug-In . SVG Version: 6.00 Build 0)  -->
<svg version="1.1" id="Calque_1" xmlns="http://www.w3.org/2000/svg" xmlns:xlink="http://www.w3.org/1999/xlink" x="0px" y="0px"
	 viewBox="0 0 823.08 109.32" style="enable-background:new 0 0 823.08 109.32;" xml:space="preserve">
<style type="text/css">
	.st0{fill:#B3C9C9;}
	.st1{fill:#8DB2B7;}
	.st2{fill:#667783;}
	.st3{fill:none;}
	.st4{enable-background:new    ;}
</style>
<g id="Calque_7">
	<path class="st0" d="M54.66,107.31c-29.08,0.4-52.98-22.85-53.38-51.93C0.88,26.3,24.13,2.4,53.21,2c0.48-0.01,0.97-0.01,1.45,0
		h713.76c29.08-0.4,52.98,22.85,53.38,51.93s-22.85,52.98-51.93,53.38c-0.48,0.01-0.97,0.01-1.45,0H54.66z"/>
	<path d="M768.42,4c27.94,0.08,50.58,22.71,50.66,50.65l0,0c-0.08,27.94-22.72,50.58-50.66,50.66H54.66
		C26.72,105.23,4.08,82.59,4,54.65l0,0C4.08,26.71,26.72,4.08,54.66,4H768.42 M768.42,0H54.66C24.47-0.41-0.33,23.73-0.73,53.92
		C-1.14,84.1,23,108.9,53.18,109.31c0.49,0.01,0.99,0.01,1.48,0h713.76c30.19,0.41,54.99-23.73,55.39-53.92
		C824.22,25.21,800.08,0.41,769.9,0C769.41-0.01,768.91-0.01,768.42,0z"/>
	<path d="M55.72,15.15h713.15c21.82,0,39.5,17.68,39.5,39.5v0.01c0,21.82-17.68,39.5-39.5,39.5H55.72c-21.82,0-39.5-17.68-39.5-39.5
		v-0.01C16.22,32.83,33.9,15.15,55.72,15.15z"/>
	<path class="st1" d="M56.88,20.74h709.31c18.73,0,33.92,15.19,33.92,33.92l0,0c0,18.73-15.19,33.92-33.92,33.92H56.88
		c-18.73,0-33.92-15.19-33.92-33.92l0,0C22.96,35.93,38.15,20.74,56.88,20.74z"/>
	<path class="st2" d="M68.6,54.65c-12.14,0-25.77,1.69-29.69,13.24c-4.14,12.15,6,18.69,2.72,17C30.2,79.12,22.99,67.41,22.96,54.61
		l0,0C23,35.89,38.16,20.73,56.88,20.69h709.31c18.72,0.04,33.88,15.2,33.92,33.92l0,0"/>
	<path class="st2" d="M754.48,54.65c12.13,0,25.76,1.69,29.69,13.24c4.13,12.15-6,18.69-2.73,17c11.43-5.77,18.64-17.48,18.67-30.28
		l0,0c-0.04-18.72-15.2-33.88-33.92-33.92H56.88C38.16,20.73,23,35.89,22.96,54.61l0,0"/>
</g>
<rect x="201.12" y="36.39" class="st3" width="537.28" height="180.73"/>
<g class="st4">
	<path d="M210.25,71.26l0.67-24.48l-8.64,0.58l0.04-12.01l27,1.62l-0.23,8.55l-9.99,0.68l0.9,23.89L210.25,71.26z"/>
	<path d="M251.83,69.37l-2.38-14.89l-4.77,14.89l-8.77,1.84l-6.25-34.83l11.7-2.07l1.84,18.22l4.19-12.92l5.94-0.4l2.66,14.4
		l6.21-18.76l9.94,3.29l-12.46,32.98L251.83,69.37z"/>
	<path d="M288.96,69.82c-9,0-16.56-7.11-16.56-16.65c0-9.81,6.34-17.95,17.14-17.95c11.02,0,17.14,8.5,17.14,17.64
		C306.69,63.29,298.32,69.82,288.96,69.82z M296.25,53.26c0-3.51-2.29-7.25-6.61-7.25c-4.36,0-7.2,3.2-7.2,7.88
		c0,3.78,2.29,7.47,7.24,7.47C293.68,61.36,296.25,58.03,296.25,53.26z"/>
	<path d="M352.54,68.56c-2.97,1.04-5.85,1.53-8.46,1.53c-10.35,0-17.46-7.38-17.46-16.33c0-8.28,5.89-17.37,17.91-17.37
		c2.07,0,4.36,0.4,6.79,1.35l-2.79,8.05c-1.08-0.54-2.25-0.76-3.33-0.76c-5.67,0-8.23,3.46-8.23,7.02c0,5.17,3.28,7.47,7.11,7.47
		c1.71,0,3.56-0.45,5.22-1.31L352.54,68.56z"/>
	<path d="M375.58,69.91l-2.11-8.24l-8.69,0.32l-1.35,7.15l-10.3,0.54l9.22-33.97l11.61-0.94l12.1,34.69L375.58,69.91z M368.56,45.12
		L366,55.73h5.89L368.56,45.12z"/>
	<path d="M409.83,70.85l-12.28-19.08l0.81,18.18l-9.63-0.99l-0.81-30.46l10.48-1.98l8.91,16.96l-0.67-17.14l11.29-0.63l-3.01,34.11
		L409.83,70.85z"/>
	<path d="M442.99,70.85l-12.29-19.08l0.81,18.18l-9.63-0.99l-0.81-30.46l10.48-1.98l8.91,16.96l-0.67-17.14l11.29-0.63l-3.02,34.11
		L442.99,70.85z"/>
	<path d="M453.93,68.78l0.63-8.19l3.78,0.22l0.67-16.69h-3.6l-0.27-7.88l19.26-0.81l-0.18,8.68h-4.46l-1.21,17.46l3.24,0.18
		l-0.58,8.77L453.93,68.78z"/>
	<path d="M475.71,37.69c3.74-1.17,8.19-1.89,12.51-1.89c7.92,0,13.95,2.47,13.95,7.24c0,3.06-2.07,5.31-5.67,7.74
		c5.45,0.49,9.22,2.83,9.22,7.6c0,7.78-11.88,11.52-21.87,11.52c-2.21,0-4.32-0.18-6.21-0.54L475.71,37.69z M485.56,49.8
		c3.69-0.09,6.79-1.89,6.79-4.23c0-2.03-1.84-3.06-4.32-3.06c-0.99,0-2.12,0.23-3.06,0.72L485.56,49.8z M487.13,62.53
		c4.05-0.09,7.65-1.62,7.65-4.14c0-1.89-1.76-2.61-4.19-2.61c-1.48,0-3.01,0.27-4.09,0.77L487.13,62.53z"/>
	<path d="M528.49,69.91l-2.12-8.24l-8.68,0.32l-1.35,7.15l-10.3,0.54l9.22-33.97l11.61-0.94l12.1,34.69L528.49,69.91z M521.47,45.12
		l-2.57,10.62h5.9L521.47,45.12z"/>
	<path d="M541.72,70.81l-2.03-34.96l11.38-0.9l-0.32,26.14l11.83-0.94l0.31,9.13L541.72,70.81z"/>
	<path d="M567.86,58.16c3.24,2.25,6.66,3.24,9.49,3.24c3.46,0,5.94-1.49,5.94-3.96c0-5.67-18.58-1.3-18.58-12.19
		c0-8.37,8.1-10.53,15.75-10.53c3.01,0,5.94,0.36,8.28,0.76l-0.27,8.23c-1.53-0.67-5-1.48-8.01-1.48c-2.7,0-5,0.67-5,2.65
		c0,4.59,19.26-1.93,19.26,13.18c0,8.55-8.1,12.33-16.38,12.33c-6.08,0-12.19-2.03-15.34-5.71L567.86,58.16z"/>
</g>
</svg>
