<?xml version="1.0" encoding="utf-8"?>
<!-- Generator: Adobe Illustrator 25.1.0, SVG Export Plug-In . SVG Version: 6.00 Build 0)  -->
<svg version="1.1" id="Calque_1" xmlns="http://www.w3.org/2000/svg" xmlns:xlink="http://www.w3.org/1999/xlink" x="0px" y="0px"
	 viewBox="0 0 823.08 109.32" style="enable-background:new 0 0 823.08 109.32;" xml:space="preserve">
<style type="text/css">
	.st0{fill:#B3C9C9;}
	.st1{fill:#8DB2B7;}
	.st2{fill:#667783;}
	.st3{fill:none;}
	.st4{enable-background:new    ;}
</style>
<g id="Calque_7">
	<path class="st0" d="M54.66,107.31c-29.08,0.4-52.98-22.85-53.38-51.93C0.88,26.3,24.13,2.4,53.21,2c0.48-0.01,0.97-0.01,1.45,0
		h713.76c29.08-0.4,52.98,22.85,53.38,51.93s-22.85,52.98-51.93,53.38c-0.48,0.01-0.97,0.01-1.45,0H54.66z"/>
	<path d="M768.42,4c27.94,0.08,50.58,22.71,50.66,50.65l0,0c-0.08,27.94-22.72,50.58-50.66,50.66H54.66
		C26.72,105.23,4.08,82.59,4,54.65l0,0C4.08,26.71,26.72,4.08,54.66,4H768.42 M768.42,0H54.66C24.47-0.41-0.33,23.73-0.73,53.92
		C-1.14,84.1,23,108.9,53.18,109.31c0.49,0.01,0.99,0.01,1.48,0h713.76c30.19,0.41,54.99-23.73,55.39-53.92
		C824.22,25.21,800.08,0.41,769.9,0C769.41-0.01,768.91-0.01,768.42,0z"/>
	<path d="M55.72,15.15h713.15c21.82,0,39.5,17.68,39.5,39.5v0.01c0,21.82-17.68,39.5-39.5,39.5H55.72c-21.82,0-39.5-17.68-39.5-39.5
		v-0.01C16.22,32.83,33.9,15.15,55.72,15.15z"/>
	<path class="st1" d="M56.88,20.74h709.31c18.73,0,33.92,15.19,33.92,33.92l0,0c0,18.73-15.19,33.92-33.92,33.92H56.88
		c-18.73,0-33.92-15.19-33.92-33.92l0,0C22.96,35.93,38.15,20.74,56.88,20.74z"/>
	<path class="st2" d="M68.6,54.65c-12.14,0-25.77,1.69-29.69,13.24c-4.14,12.15,6,18.69,2.72,17C30.2,79.12,22.99,67.41,22.96,54.61
		l0,0C23,35.89,38.16,20.73,56.88,20.69h709.31c18.72,0.04,33.88,15.2,33.92,33.92l0,0"/>
	<path class="st2" d="M754.48,54.65c12.13,0,25.76,1.69,29.69,13.24c4.13,12.15-6,18.69-2.73,17c11.43-5.77,18.64-17.48,18.67-30.28
		l0,0c-0.04-18.72-15.2-33.88-33.92-33.92H56.88C38.16,20.73,23,35.89,22.96,54.61l0,0"/>
</g>
<rect x="191.3" y="35.4" class="st3" width="537.28" height="180.73"/>
<g class="st4">
	<path d="M200.43,70.28l0.67-24.48l-8.64,0.58l0.04-12.01l27,1.62l-0.23,8.55l-9.99,0.68l0.9,23.89L200.43,70.28z"/>
	<path d="M242.01,68.39l-2.38-14.9l-4.77,14.9l-8.77,1.84l-6.25-34.83l11.7-2.07l1.84,18.22l4.19-12.92l5.94-0.4l2.66,14.4
		l6.21-18.76l9.94,3.29l-12.46,32.98L242.01,68.39z"/>
	<path d="M279.13,68.84c-9,0-16.56-7.11-16.56-16.65c0-9.81,6.34-17.95,17.14-17.95c11.02,0,17.14,8.5,17.14,17.64
		C296.86,62.31,288.49,68.84,279.13,68.84z M286.42,52.28c0-3.51-2.29-7.25-6.61-7.25c-4.36,0-7.2,3.2-7.2,7.88
		c0,3.78,2.29,7.47,7.24,7.47C283.86,60.38,286.42,57.05,286.42,52.28z"/>
	<path d="M345.01,68.75l-1.58-18.31l-5.76,14.71l-3.96,0.67l-4.64-14.44l-3.42,18l-9.31-2.21l7.15-32.85l7.06-0.23l5.71,16.65
		l6.84-16.56l7.47,0.77l5.49,33.3L345.01,68.75z"/>
	<path d="M358.42,70.01l0.72-35.1l10.48-0.18l-0.81,34.87L358.42,70.01z"/>
	<path d="M376.65,58.98c2.38,2.07,4.95,2.92,7.15,2.92c3.42,0,6.12-1.62,6.12-4.1c0-4.32-17.1-0.49-17.1-12.37
		c0-8.19,9.99-11.38,17.01-11.38c2.88,0,5.89,0.5,8.77,1.67l-3.1,7.96c-2.07-1.21-4.36-1.71-6.39-1.71c-3.42,0-6.21,1.44-6.21,3.55
		c0,4.54,17.91-0.18,17.91,13.27c0,6.53-7.47,11.02-15.43,11.02c-4.77,0-9.72-1.62-13.32-5.4L376.65,58.98z"/>
	<path d="M406.66,58.98c2.38,2.07,4.95,2.92,7.15,2.92c3.42,0,6.12-1.62,6.12-4.1c0-4.32-17.1-0.49-17.1-12.37
		c0-8.19,9.99-11.38,17.01-11.38c2.88,0,5.89,0.5,8.77,1.67l-3.1,7.96c-2.07-1.21-4.37-1.71-6.39-1.71c-3.42,0-6.21,1.44-6.21,3.55
		c0,4.54,17.91-0.18,17.91,13.27c0,6.53-7.47,11.02-15.43,11.02c-4.77,0-9.72-1.62-13.32-5.4L406.66,58.98z"/>
	<path d="M433.75,70.01l0.72-35.1l10.48-0.18l-0.81,34.87L433.75,70.01z"/>
	<path d="M447.66,52.05c0-9.72,7.06-18.13,16.38-18.13c9.5,0,16.47,8.05,16.47,18c0,9.45-7.25,17.86-16.6,17.86
		C454.63,69.78,447.66,61.64,447.66,52.05z M470.47,52.59c0-4.18-2.43-7.74-6.21-7.74c-4.05,0-6.88,3.69-6.88,7.88
		c0,4.27,2.11,7.65,6.75,7.65C468.18,60.38,470.47,56.73,470.47,52.59z"/>
	<path d="M505.62,69.6l-11.83-18.36l2.66,18l-12.28,1.4l-0.72-35.95l7.6,0.27l9.85,13.45l-2.02-14.71l11.07,1.26l1.26,34.11
		L505.62,69.6z"/>
	<path d="M535.41,69.87l-2.07-6.88l-8.91,0.63l-1.48,6.79l-10.17-1.93l10.75-34.47l9.58,0.32l12.15,32.71L535.41,69.87z
		 M528.25,46.07L525.69,57l5.76-0.36L528.25,46.07z"/>
	<path d="M563.67,69.29l-5.17-12.19l-2.7,0.36l0.63,11.92h-9.5l0.09-33.97c2.34-0.68,6.34-0.99,9.09-0.99
		c11.34,0,16.96,5.49,16.96,11.11c0,3.69-2.38,7.42-7.15,9.72l7.15,12.6L563.67,69.29z M555.52,51.2c4.59-0.04,6.93-2.34,6.93-4.59
		c0-2.02-1.93-4-5.85-4c-0.5,0-1.04,0-1.53,0.09L555.52,51.2z"/>
	<path d="M575.05,67.8l0.63-8.19l3.78,0.22l0.68-16.69h-3.6l-0.27-7.88l19.26-0.81l-0.18,8.68h-4.46l-1.21,17.46l3.24,0.18
		l-0.58,8.77L575.05,67.8z"/>
	<path d="M599.67,68.39l-2.57-32.94l21.19-2.52l0.58,7.79l-12.38,1.44l0.45,4.59l9.67-0.72l0.72,7.15l-9.49,0.81l0.67,4.86
		l12.15-1.21l0.63,11.07L599.67,68.39z"/>
	<path d="M626.58,57.18c3.24,2.25,6.66,3.24,9.49,3.24c3.46,0,5.94-1.49,5.94-3.96c0-5.67-18.58-1.31-18.58-12.19
		c0-8.37,8.1-10.53,15.75-10.53c3.01,0,5.94,0.36,8.28,0.76l-0.27,8.23c-1.53-0.67-5-1.48-8.01-1.48c-2.7,0-5,0.67-5,2.65
		c0,4.59,19.26-1.93,19.26,13.19c0,8.55-8.1,12.33-16.38,12.33c-6.08,0-12.19-2.03-15.34-5.71L626.58,57.18z"/>
</g>
</svg>
