<?xml version="1.0" encoding="utf-8"?>
<!-- Generator: Adobe Illustrator 25.1.0, SVG Export Plug-In . SVG Version: 6.00 Build 0)  -->
<svg version="1.1" id="Calque_1" xmlns="http://www.w3.org/2000/svg" xmlns:xlink="http://www.w3.org/1999/xlink" x="0px" y="0px"
	 viewBox="0 0 823.08 109.32" style="enable-background:new 0 0 823.08 109.32;" xml:space="preserve">
<style type="text/css">
	.st0{fill:#B3C9C9;}
	.st1{fill:#8DB2B7;}
	.st2{fill:#667783;}
	.st3{fill:none;}
	.st4{enable-background:new    ;}
</style>
<g id="Calque_7">
	<path class="st0" d="M54.66,107.31c-29.08,0.4-52.98-22.85-53.38-51.93C0.88,26.3,24.13,2.4,53.21,2c0.48-0.01,0.97-0.01,1.45,0
		h713.76c29.08-0.4,52.98,22.85,53.38,51.93s-22.85,52.98-51.93,53.38c-0.48,0.01-0.97,0.01-1.45,0H54.66z"/>
	<path d="M768.42,4c27.94,0.08,50.58,22.71,50.66,50.65l0,0c-0.08,27.94-22.72,50.58-50.66,50.66H54.66
		C26.72,105.23,4.08,82.59,4,54.65l0,0C4.08,26.71,26.72,4.08,54.66,4H768.42 M768.42,0H54.66C24.47-0.41-0.33,23.73-0.73,53.92
		C-1.14,84.1,23,108.9,53.18,109.31c0.49,0.01,0.99,0.01,1.48,0h713.76c30.19,0.41,54.99-23.73,55.39-53.92
		C824.22,25.21,800.08,0.41,769.9,0C769.41-0.01,768.91-0.01,768.42,0z"/>
	<path d="M55.72,15.15h713.15c21.82,0,39.5,17.68,39.5,39.5v0.01c0,21.82-17.68,39.5-39.5,39.5H55.72c-21.82,0-39.5-17.68-39.5-39.5
		v-0.01C16.22,32.83,33.9,15.15,55.72,15.15z"/>
	<path class="st1" d="M56.88,20.74h709.31c18.73,0,33.92,15.19,33.92,33.92l0,0c0,18.73-15.19,33.92-33.92,33.92H56.88
		c-18.73,0-33.92-15.19-33.92-33.92l0,0C22.96,35.93,38.15,20.74,56.88,20.74z"/>
	<path class="st2" d="M68.6,54.65c-12.14,0-25.77,1.69-29.69,13.24c-4.14,12.15,6,18.69,2.72,17C30.2,79.12,22.99,67.41,22.96,54.61
		l0,0C23,35.89,38.16,20.73,56.88,20.69h709.31c18.72,0.04,33.88,15.2,33.92,33.92l0,0"/>
	<path class="st2" d="M754.48,54.65c12.13,0,25.76,1.69,29.69,13.24c4.13,12.15-6,18.69-2.73,17c11.43-5.77,18.64-17.48,18.67-30.28
		l0,0c-0.04-18.72-15.2-33.88-33.92-33.92H56.88C38.16,20.73,23,35.89,22.96,54.61l0,0"/>
</g>
<rect x="261.6" y="37.37" class="st3" width="537.28" height="180.73"/>
<g class="st4">
	<path d="M284.06,70.89l-2.11-8.24l-8.69,0.32l-1.35,7.15l-10.3,0.54l9.22-33.97l11.61-0.94l12.1,34.69L284.06,70.89z M277.04,46.1
		l-2.56,10.62h5.89L277.04,46.1z"/>
	<path d="M339.22,69.54c-2.97,1.04-5.85,1.53-8.46,1.53c-10.35,0-17.46-7.38-17.46-16.33c0-8.28,5.89-17.37,17.91-17.37
		c2.07,0,4.36,0.4,6.79,1.35l-2.79,8.05c-1.08-0.54-2.25-0.76-3.33-0.76c-5.67,0-8.23,3.46-8.23,7.02c0,5.17,3.28,7.47,7.11,7.47
		c1.71,0,3.56-0.45,5.22-1.31L339.22,69.54z"/>
	<path d="M362.4,71.84l-2.07-6.88l-8.91,0.63l-1.48,6.79l-10.17-1.93l10.75-34.47l9.58,0.32L372.25,69L362.4,71.84z M355.24,48.03
		l-2.56,10.93l5.76-0.36L355.24,48.03z"/>
	<path d="M396.15,71.57l-11.83-18.36l2.65,18l-12.28,1.4l-0.72-35.95l7.6,0.27l9.85,13.45l-2.02-14.71l11.07,1.26l1.26,34.11
		L396.15,71.57z"/>
	<path d="M427.33,71.57L415.5,53.21l2.65,18l-12.28,1.4l-0.72-35.95l7.6,0.27l9.85,13.45l-2.02-14.71l11.07,1.26l1.26,34.11
		L427.33,71.57z"/>
	<path d="M436.33,71.97l0.72-35.1l10.48-0.18l-0.81,34.87L436.33,71.97z"/>
	<path d="M451.05,37.68c2.61-0.72,7.74-1.26,11.56-1.26c7.06,0,14.17,1.8,14.17,7.6c0,3.11-2.97,5.54-6.88,7.74
		c5.36,0.81,10.17,3.51,10.17,7.69c0,8.32-10.12,11.47-18.99,11.47c-2.83,0-6.88-0.32-9.09-0.9L451.05,37.68z M460.09,49.11
		c0.32,0.04,0.58,0.09,0.95,0.09c1.84,0,5.22-1.44,5.22-3.83c0-1.93-1.8-2.65-3.64-2.65c-0.95,0-1.94,0.18-2.7,0.5L460.09,49.11z
		 M460.45,63.24c0.72,0.13,1.67,0.27,2.75,0.27c2.83,0,6.16-0.76,6.16-3.69c0-2.57-2.38-3.38-4.86-3.38c-1.53,0-3.1,0.31-4.18,0.72
		L460.45,63.24z"/>
	<path d="M502.53,71.84l-2.07-6.88l-8.91,0.63l-1.49,6.79l-10.17-1.93l10.75-34.47l9.58,0.32L512.38,69L502.53,71.84z M495.37,48.03
		l-2.57,10.93l5.76-0.36L495.37,48.03z"/>
	<path d="M515.71,71.79l-1.67-35.05l10.26-0.36l-0.27,24.61l12.42-1.58l0.27,10.89L515.71,71.79z"/>
</g>
</svg>
