<?xml version="1.0" encoding="utf-8"?>
<!-- Generator: Adobe Illustrator 25.1.0, SVG Export Plug-In . SVG Version: 6.00 Build 0)  -->
<svg version="1.1" id="Calque_1" xmlns="http://www.w3.org/2000/svg" xmlns:xlink="http://www.w3.org/1999/xlink" x="0px" y="0px"
	 viewBox="0 0 823.08 109.32" style="enable-background:new 0 0 823.08 109.32;" xml:space="preserve">
<style type="text/css">
	.st0{fill:#B3C9C9;}
	.st1{fill:#8DB2B7;}
	.st2{fill:#667783;}
</style>
<g id="Calque_7">
	<path class="st0" d="M54.66,107.31c-29.08,0.4-52.98-22.85-53.38-51.93C0.88,26.3,24.13,2.4,53.21,2c0.48-0.01,0.97-0.01,1.45,0
		h713.76c29.08-0.4,52.98,22.85,53.38,51.93c0.4,29.08-22.85,52.98-51.93,53.38c-0.48,0.01-0.97,0.01-1.45,0H54.66z"/>
	<path d="M768.42,4c27.94,0.08,50.58,22.71,50.66,50.65l0,0c-0.08,27.94-22.72,50.58-50.66,50.66H54.66
		C26.72,105.23,4.08,82.59,4,54.65l0,0C4.08,26.71,26.72,4.08,54.66,4L768.42,4 M768.42,0H54.66C24.47-0.41-0.33,23.73-0.73,53.92
		C-1.14,84.1,23,108.9,53.18,109.31c0.49,0.01,0.99,0.01,1.48,0h713.76c30.19,0.41,54.99-23.73,55.39-53.92
		C824.22,25.21,800.08,0.41,769.9,0C769.41-0.01,768.91-0.01,768.42,0z"/>
	<path d="M55.72,15.15h713.15c21.82,0,39.5,17.68,39.5,39.5v0.01c0,21.82-17.68,39.5-39.5,39.5H55.72c-21.82,0-39.5-17.68-39.5-39.5
		v-0.01C16.22,32.83,33.9,15.15,55.72,15.15z"/>
	<path class="st1" d="M56.88,20.74h709.31c18.73,0,33.92,15.19,33.92,33.92l0,0c0,18.73-15.19,33.92-33.92,33.92H56.88
		c-18.73,0-33.92-15.19-33.92-33.92l0,0C22.96,35.93,38.15,20.74,56.88,20.74z"/>
	<path class="st2" d="M68.6,54.65c-12.14,0-25.77,1.69-29.69,13.24c-4.14,12.15,6,18.69,2.72,17C30.2,79.12,22.99,67.41,22.96,54.61
		l0,0C23,35.89,38.16,20.73,56.88,20.69h709.31c18.72,0.04,33.88,15.2,33.92,33.92l0,0"/>
	<path class="st2" d="M754.48,54.65c12.13,0,25.76,1.69,29.69,13.24c4.13,12.15-6,18.69-2.73,17c11.43-5.77,18.64-17.48,18.67-30.28
		l0,0c-0.04-18.72-15.2-33.88-33.92-33.92H56.88C38.16,20.73,23,35.89,22.96,54.61l0,0"/>
</g>
<g>
	<path d="M81.04,69.45l-1.88-7.32l-7.72,0.28l-1.2,6.36l-9.16,0.48l8.2-30.19l10.32-0.84l10.76,30.83L81.04,69.45z M74.8,47.41
		l-2.28,9.44h5.24L74.8,47.41z"/>
	<path d="M130.08,68.25c-2.64,0.92-5.2,1.36-7.52,1.36c-9.2,0-15.52-6.56-15.52-14.52c0-7.36,5.24-15.44,15.92-15.44
		c1.84,0,3.88,0.36,6.04,1.2l-2.48,7.16c-0.96-0.48-2-0.68-2.96-0.68c-5.04,0-7.32,3.08-7.32,6.24c0,4.6,2.92,6.64,6.32,6.64
		c1.52,0,3.16-0.4,4.64-1.16L130.08,68.25z"/>
	<path d="M150.56,69.45l-1.88-7.32l-7.72,0.28l-1.2,6.36l-9.16,0.48l8.2-30.19l10.32-0.84l10.76,30.83L150.56,69.45z M144.32,47.41
		l-2.28,9.44h5.24L144.32,47.41z"/>
	<path d="M181,70.29l-10.92-16.96l0.72,16.16l-8.56-0.88l-0.72-27.08l9.32-1.76l7.92,15.08l-0.6-15.24l10.04-0.56l-2.68,30.31
		L181,70.29z"/>
	<path d="M210.48,70.29l-10.92-16.96l0.72,16.16l-8.56-0.88L191,41.53l9.32-1.76l7.92,15.08l-0.6-15.24l10.04-0.56L215,69.37
		L210.48,70.29z"/>
	<path d="M220.2,68.45l0.56-7.28l3.36,0.2l0.6-14.84h-3.2l-0.24-7l17.12-0.72l-0.16,7.72h-3.96l-1.08,15.52l2.88,0.16l-0.52,7.8
		L220.2,68.45z"/>
	<path d="M239.56,40.81c3.32-1.04,7.28-1.68,11.12-1.68c7.04,0,12.4,2.2,12.4,6.44c0,2.72-1.84,4.72-5.04,6.88
		c4.84,0.44,8.2,2.52,8.2,6.76c0,6.92-10.56,10.24-19.44,10.24c-1.96,0-3.84-0.16-5.52-0.48L239.56,40.81z M248.32,51.57
		c3.28-0.08,6.04-1.68,6.04-3.76c0-1.8-1.64-2.72-3.84-2.72c-0.88,0-1.88,0.2-2.72,0.64L248.32,51.57z M249.72,62.89
		c3.6-0.08,6.8-1.44,6.8-3.68c0-1.68-1.56-2.32-3.72-2.32c-1.32,0-2.68,0.24-3.64,0.68L249.72,62.89z"/>
	<path d="M286.48,69.45l-1.88-7.32l-7.72,0.28l-1.2,6.36l-9.16,0.48l8.2-30.19l10.32-0.84l10.76,30.83L286.48,69.45z M280.24,47.41
		l-2.28,9.44h5.24L280.24,47.41z"/>
	<path d="M298.24,70.25l-1.8-31.07l10.12-0.8l-0.28,23.24l10.52-0.84l0.28,8.12L298.24,70.25z"/>
	<path d="M353.48,69.45l-1.88-7.32l-7.72,0.28l-1.2,6.36l-9.16,0.48l8.2-30.19l10.32-0.84l10.76,30.83L353.48,69.45z M347.24,47.41
		l-2.28,9.44h5.24L347.24,47.41z"/>
	<path d="M383.92,70.29L373,53.33l0.72,16.16l-8.56-0.88l-0.72-27.08l9.32-1.76l7.92,15.08l-0.6-15.24l10.04-0.56l-2.68,30.31
		L383.92,70.29z"/>
	<path d="M394.4,40.45c1.68-0.12,3.36-0.2,5.04-0.2c12.04,0,20.92,4.76,20.92,14.08c0,9.32-11.2,15.8-22.88,15.8
		c-1.12,0-2.24-0.08-3.36-0.2L394.4,40.45z M401.76,60.97c6-0.04,9-3.48,9-6.84c0-3.12-2.6-6.16-7.72-6.16
		c-0.2,0-0.44,0.04-0.68,0.04L401.76,60.97z"/>
	<path d="M457.43,69.45l-1.88-7.32l-7.72,0.28l-1.2,6.36l-9.16,0.48l8.2-30.19L456,38.21l10.76,30.83L457.43,69.45z M451.2,47.41
		l-2.28,9.44h5.24L451.2,47.41z"/>
	<path d="M511.95,68.97l-1.16-18l-6.4,17.32l-4.44-0.28l-5.72-16.68l-1.16,17.68l-9.4-1.56l4.88-28.99l9.84,0.76l5.12,14.04
		l5.52-13.16l10.04-0.36l2.88,29.55L511.95,68.97z"/>
	<path d="M524.56,68.45l0.56-7.28l3.36,0.2l0.6-14.84h-3.2l-0.24-7l17.12-0.72l-0.16,7.72h-3.96l-1.08,15.52l2.88,0.16l-0.52,7.8
		L524.56,68.45z"/>
	<path d="M547.04,59.01c2.88,2,5.92,2.88,8.44,2.88c3.08,0,5.28-1.32,5.28-3.52c0-5.04-16.52-1.16-16.52-10.84
		c0-7.44,7.2-9.36,14-9.36c2.68,0,5.28,0.32,7.36,0.68l-0.24,7.32c-1.36-0.6-4.44-1.32-7.12-1.32c-2.4,0-4.44,0.6-4.44,2.36
		c0,4.08,17.12-1.72,17.12,11.72c0,7.6-7.2,10.96-14.56,10.96c-5.4,0-10.84-1.8-13.64-5.08L547.04,59.01z"/>
	<path d="M575.48,59.01c2.88,2,5.92,2.88,8.44,2.88c3.08,0,5.28-1.32,5.28-3.52c0-5.04-16.52-1.16-16.52-10.84
		c0-7.44,7.2-9.36,14-9.36c2.68,0,5.28,0.32,7.36,0.68l-0.24,7.32c-1.36-0.6-4.44-1.32-7.12-1.32c-2.4,0-4.44,0.6-4.44,2.36
		c0,4.08,17.12-1.72,17.12,11.72c0,7.6-7.2,10.96-14.56,10.96c-5.4,0-10.84-1.8-13.64-5.08L575.48,59.01z"/>
	<path d="M601.36,68.45l0.56-7.28l3.36,0.2l0.6-14.84h-3.2l-0.24-7l17.12-0.72l-0.16,7.72h-3.96l-1.08,15.52l2.88,0.16l-0.52,7.8
		L601.36,68.45z"/>
	<path d="M635.59,69.37c-8,0-14.72-6.32-14.72-14.8c0-8.72,5.64-15.96,15.24-15.96c9.8,0,15.24,7.56,15.24,15.68
		C651.35,63.57,643.91,69.37,635.59,69.37z M642.07,54.65c0-3.12-2.04-6.44-5.88-6.44c-3.88,0-6.4,2.84-6.4,7
		c0,3.36,2.04,6.64,6.44,6.64C639.79,61.85,642.07,58.89,642.07,54.65z"/>
	<path d="M673.51,70.29l-10.92-16.96l0.72,16.16l-8.56-0.88l-0.72-27.08l9.32-1.76l7.92,15.08l-0.6-15.24l10.04-0.56l-2.68,30.31
		L673.51,70.29z"/>
	<path d="M700.55,69.45l-1.88-7.32l-7.72,0.28l-1.2,6.36l-9.16,0.48l8.2-30.19l10.32-0.84l10.76,30.83L700.55,69.45z M694.31,47.41
		l-2.28,9.44h5.24L694.31,47.41z"/>
	<path d="M727.63,70.45l-4.8-11.16c-1.08,0.6-2.32,1.08-3.28,1.4l0.92,8.32l-8.72,1.36L711,39.85c2.76-0.64,5.8-0.96,8.72-0.96
		c7.6,0,14.52,2.4,14.52,8.8c0,3.36-2.04,6.12-5.56,8.52l7.44,9.84L727.63,70.45z M718.67,53.69c4.04-0.64,7.32-2.52,7.32-5.04
		c0-2.32-1.76-3-3.76-3c-1.56,0-3.28,0.4-4.44,0.76L718.67,53.69z"/>
	<path d="M745.31,70.61l-0.16-14.48L734,41.57l10.96-3.72l6.56,11.68l6.52-11.6l7.32,2.76l-10.32,15.72l0.12,13.36L745.31,70.61z"/>
</g>
</svg>
