<svg width="475" height="454" viewBox="0 0 475 454" fill="none" xmlns="http://www.w3.org/2000/svg">
<path d="M261.118 14.668L314.103 121.961C315.994 125.786 318.788 129.095 322.243 131.603C325.699 134.11 329.712 135.74 333.938 136.352L452.422 153.574C474.025 156.711 482.65 183.233 467.019 198.463L381.281 281.96C378.221 284.937 375.933 288.613 374.613 292.672C373.293 296.73 372.982 301.049 373.705 305.254L393.937 423.172C397.631 444.677 375.046 461.068 355.721 450.914L249.751 395.243C245.972 393.258 241.768 392.221 237.499 392.221C233.231 392.221 229.026 393.258 225.248 395.243L119.263 450.937C99.9449 461.09 77.3601 444.7 81.0468 423.195L101.279 305.277C102.002 301.071 101.69 296.753 100.371 292.694C99.0508 288.636 96.7624 284.959 93.703 281.982L7.97968 198.448C-7.65133 183.218 0.973437 156.696 22.5766 153.559L141.061 136.337C145.287 135.725 149.3 134.095 152.755 131.588C156.211 129.08 159.004 125.771 160.895 121.946L213.88 14.653C223.547 -4.89016 251.452 -4.89016 261.118 14.668Z" fill="black"/>
<path d="M191.791 204.731L349.075 271.605C350.227 268.709 351.973 266.087 354.2 263.907L427.56 192.451C430.889 189.244 433.139 185.082 433.998 180.541C434.857 176.001 434.283 171.306 432.356 167.105L191.791 204.731Z" fill="white"/>
<path d="M302.557 134.309C300.126 132.31 298.147 129.819 296.749 127.001L251.407 35.2001C249.229 30.7484 245.632 27.1462 241.182 24.9599C236.731 22.7737 231.68 22.1272 226.822 23.1223L191.791 204.731L302.557 134.309Z" fill="white"/>
<path d="M210.996 35.2001L165.654 127C163.901 130.523 161.252 133.523 157.974 135.701L191.791 204.731L226.8 23.1223C223.404 23.7612 220.206 25.1867 217.461 27.2842C214.717 29.3817 212.502 32.0928 210.996 35.2001Z" fill="#DFDFDF"/>
<path d="M107.634 407.591L191.791 204.731L107.581 407.561L107.634 407.591Z" fill="#DFDFDF"/>
<path d="M34.8213 192.451L108.181 263.907C109.268 264.981 110.242 266.162 111.088 267.434L191.791 204.731L29.621 168.041C27.9468 172.163 27.5475 176.692 28.4744 181.043C29.4014 185.394 31.6122 189.368 34.8213 192.451Z" fill="#DFDFDF"/>
<path d="M241.689 360.829L332.357 408.467C336.095 410.465 340.326 411.355 344.552 411.032C348.779 410.71 352.825 409.189 356.216 406.647L191.791 204.731L227.316 358.62C232.22 357.745 237.275 358.522 241.689 360.829Z" fill="#D6D6D6"/>
<path d="M432.378 167.105C430.857 163.63 428.469 160.604 425.442 158.316C422.415 156.029 418.851 154.556 415.091 154.039L313.714 139.318C309.603 138.711 305.741 136.977 302.557 134.309L191.791 204.731L432.378 167.105Z" fill="#DFDFDF"/>
<path d="M148.689 139.318L47.305 154.039C43.3768 154.584 39.6665 156.171 36.5603 158.635C33.4541 161.098 31.0656 164.349 29.6433 168.049L191.813 204.739L157.973 135.701C155.188 137.586 152.016 138.822 148.689 139.318Z" fill="#939393"/>
<path d="M130.039 408.467L220.707 360.829C222.788 359.755 225.022 359.01 227.331 358.62L191.791 204.731L107.634 407.591C110.953 409.712 114.779 410.912 118.717 411.066C122.655 411.22 126.563 410.323 130.039 408.467Z" fill="#B0B0B0"/>
<path d="M114.662 283.832L97.3753 384.73C96.596 389.123 97.1552 393.647 98.9803 397.718C100.805 401.789 103.812 405.218 107.611 407.561L191.791 204.731L111.088 267.434C114.35 272.235 115.631 278.11 114.662 283.832Z" fill="#6A6A6A"/>
<path d="M356.224 406.647C359.608 404.193 362.232 400.835 363.795 396.958C365.357 393.082 365.795 388.844 365.058 384.73L347.741 283.832C347.046 279.71 347.516 275.475 349.098 271.605L191.791 204.731L356.224 406.647Z" fill="#C2C2C2"/>
</svg>
