<svg xmlns="http://www.w3.org/2000/svg" viewBox="0 0 633.9 606.32"><defs><style>.cls-1{fill:#ffc373;}.cls-2{fill:#ffd39c;}.cls-3{fill:#ffb462;}.cls-4{fill:#ffe3c2;}.cls-5{fill:#ffa34b;}.cls-6{fill:#ffca84;}.cls-7{fill:#ffa64c;}</style></defs><g id="Calque_6" data-name="Calque 6"><path d="M991.52,103.36l70.71,143.29a35.15,35.15,0,0,0,26.47,19.22l158.12,23c28.83,4.19,40.34,39.61,19.48,59.95L1151.88,460.33a35.12,35.12,0,0,0-10.11,31.11l27,157.48c4.93,28.72-25.21,50.61-51,37.05L976.35,611.62a35.14,35.14,0,0,0-32.7,0L802.21,686c-25.78,13.56-55.92-8.33-51-37.05l27-157.48a35.12,35.12,0,0,0-10.11-31.11L653.7,348.8c-20.86-20.34-9.35-55.76,19.48-59.95l158.12-23a35.15,35.15,0,0,0,26.47-19.22l70.71-143.29C941.38,77.24,978.62,77.24,991.52,103.36Z" transform="translate(-643.05 -83.77)"/><path class="cls-1" d="M899,357.19l209.9,89.31a29.78,29.78,0,0,1,6.84-10.28l97.9-95.43a29.78,29.78,0,0,0,6.4-33.85Z" transform="translate(-643.05 -83.77)"/><path class="cls-1" d="M1046.82,263.14a29.75,29.75,0,0,1-7.75-9.76l-60.51-122.6a29.85,29.85,0,0,0-32.81-16.13L899,357.19Z" transform="translate(-643.05 -83.77)"/><path class="cls-2" d="M924.63,130.78l-60.51,122.6A30,30,0,0,1,853.87,265L899,357.19l46.72-242.54A29.5,29.5,0,0,0,924.63,130.78Z" transform="translate(-643.05 -83.77)"/><path class="cls-2" d="M786.69,628.11,899,357.19,786.62,628.07Z" transform="translate(-643.05 -83.77)"/><path class="cls-2" d="M689.52,340.79l97.9,95.43a29.89,29.89,0,0,1,3.88,4.71L899,357.19l-216.42-49A29.72,29.72,0,0,0,689.52,340.79Z" transform="translate(-643.05 -83.77)"/><path class="cls-3" d="M965.59,565.66l121,63.62a29.71,29.71,0,0,0,31.84-2.43L899,357.19l47.41,205.52A30,30,0,0,1,965.59,565.66Z" transform="translate(-643.05 -83.77)"/><path class="cls-2" d="M1220.07,306.94A29.58,29.58,0,0,0,1197,289.49l-135.29-19.66a30,30,0,0,1-14.89-6.69L899,357.19Z" transform="translate(-643.05 -83.77)"/><path class="cls-4" d="M841.48,269.83l-135.3,19.66a29.61,29.61,0,0,0-23.57,18.71l216.42,49L853.87,265A30,30,0,0,1,841.48,269.83Z" transform="translate(-643.05 -83.77)"/><path class="cls-5" d="M816.59,629.28l121-63.62a30.2,30.2,0,0,1,8.84-2.95L899,357.19,786.69,628.11A29.6,29.6,0,0,0,816.59,629.28Z" transform="translate(-643.05 -83.77)"/><path class="cls-6" d="M796.07,462.83,773,597.58a29.73,29.73,0,0,0,13.66,30.49L899,357.19,791.3,440.93A30.06,30.06,0,0,1,796.07,462.83Z" transform="translate(-643.05 -83.77)"/><path class="cls-7" d="M1118.44,626.85a29.7,29.7,0,0,0,11.79-29.27l-23.11-134.75a30,30,0,0,1,1.81-16.33L899,357.19Z" transform="translate(-643.05 -83.77)"/></g></svg>