<svg xmlns="http://www.w3.org/2000/svg" viewBox="0 0 1920 1080"><defs><style>.cls-1{fill:#ad0000;}.cls-2{fill:#ff4a4a;}.cls-3{fill:#fff;}</style></defs><g id="sang"><path class="cls-1" d="M1280.52,0c19.14,32.2-11,81.6-82.47,98.92-88.17,21.38,28.37,52.94,52.69,89.59s-68.11,77.9-167.13,56.27c-89.4-19.52-59.72,190.08,76.51,126s117-161.86,250.74-118.09-20.27,146.59,23.31,200.55,202.67,2,253.34,61.08,35,113,194.57,113c14.93,0,27.47-5.8,37.92-16.32V0Z"/><path class="cls-1" d="M681.91,879.27c35.22-61.18,133.48-126.07,29.66-131.63S429.77,731,448.31,606.74,275.89,402.8,212.85,465.83C156.46,522.23,58.51,535.58,0,471.37V1080H1099.79C1098.11,804.64,647.55,938.94,681.91,879.27Z"/></g><g id="sang3"><path d="M1917.3,554.64c-10.47,12.5-22.56,28.54-37,28.54-8,0,8.9-17.81,1.76-18.08-6.69-.24-56.62,32.63-82.07,27.34-5.06-1.05,45.9-31.45,41.26-32-10-1.21-63.18,19.8-71.11,17.9-6.82-1.63,37.13-21.23,31.6-23.33-6.92-2.63-52.19,12.52-57.49,9.22-5.75-3.57,33.51-16.49,29.12-20.75s-38.36-2.76-41.85-7.47c-3-4,24-5.42,21.25-9.83-2.07-3.29-26.64-15.46-28.75-18.92-3.1-5.1,21.55,5.24,16.94-1.1-6.64-9.13-43.08-35.26-50.26-43.62-14.9-17.37-42.72-13.46-73.68-5.2-10,2.68-3.74-8.17-14.11-5.16-9.35,2.72-35.39,19.33-44.48,21.43-7.76,1.78,3.68-7.73-3.56-7-8.64.91-35.64,12.28-43,12.27s9.86-6.47,3.56-7.39c-8-1.17-39.33,2.92-45.84.26-7.23-2.94,9.86-.89,4.17-5.65-3.94-3.31-31-12.95-34.38-17.12-14.84-18.37,7.31-59.49,28.06-84,23.81-28.1,31.93-58.82,23.69-73.57-3.67-6.57,19.58-4,10.75-9.25-3.87-2.3-38.26-12.84-42.76-14.93-4.2-1.94,23.11-8.23,18.54-10s-40.91.95-45.61-.69c-4.21-1.46,29.52-10.93,25.3-12.31-5.81-1.9-49.63,4.47-55.4,3s22.44-12.62,17-13.62c-5.91-1.07-45.46,8.08-50.7,7.55-5-.5,17.14-10.75,13.07-10.75-7,0-40.26,10.48-46.34,11.43-5.42.83,9.34-14.17,4.53-12.63-5.61,1.8-30.71,20.26-35.74,23-4.73,2.53,5.33-14.41.89-11.15-5.43,4-25.31,28.37-30.65,33.38-3.69,3.47,3.79-22.09,0-18.18-2.78,2.87-16.85,35.09-19.83,38.1-4,4-8.15,8.18-12.59,12.39-5.24,5-21,18.52-27.11,23.62-4.15,3.48-13.19,3.91-17.83,7.39-6.61,4.95-4.75,10.07-12.52,14.9-5.89,3.66-2-6.39-8.68-2.87-4.4,2.33-13.26,12.68-18,14.93-5.45,2.56,1.82-6.58-3.42-4.88-5.61,1.84-23.72,14.46-29.05,15.31-6.88,1.1,12.15-10.47,5.82-11S1101.43,376.89,1087,372c-4-1.37,18.34-5.41,14.72-7.7-5-3.14-28.24,3.56-40-9.63-10.85-12.2-18.19-21.63-20.34-39.26-1.46-11.93,12.46-32.35,12.41-36.55-.06-5.42-14.23,6.42-13.25,1.59,1.13-5.54,14.71-13.81,17.16-18.1,2-3.55-7.4-3.54-4.72-6.28,3.43-3.5,23.45,1.42,28-.16,4.85-1.69-5.7-9.71.43-8.37,35.85,7.83,74.88,11.87,108.51,4.63,2.83-.6-8.64,9.25-5.93,8.55,3.21-.84,20.58-12.24,23.6-13.2s-7.4,8.32-4.6,7.25c3.35-1.27,19.87-12.9,22.91-14.33s-4.21,8.61-1.42,7,15.85-15.05,18.28-16.85c2.87-2.13-1.69,9.76.56,7.46,2-2,10.86-18.26,12.33-20.42,1.88-2.77,3.08,7.64,4,4.78.87-2.67,1.43-15.45,1.48-18.13,0-2.21,10.39,9.25,4.13-4.71-1.73-3.84-7-11.59-9.07-14.74-9.26-14-29.16-26.26-48.41-38.16-10.42-6.44-20.26-12.53-27.17-18.18-8.56-7-8.56-10-8.48-10.58.06-.37.39-3,6.24-5.37,4.39-1.79,14.4-.46,16.46-1.26s-6.63-2.76-3.58-3.67c2.44-.72,16.9.1,20-.66,2.93-.71-5.89-3-3-3.87,3.29-1,16.69-.6,19.84-1.71s-3.77-3.74-.68-5c2.64-1.1,17.61-1.61,20.12-2.82s-7.33-3.17-4.91-4.51c3.81-2.11,13.82-3.53,17.29-5.89,4.23-2.89-4.68-.81-1-4.06,2.19-1.94,9.8-3,12-4.82,1-.82-5.59-.72-3.79-3.68,6.35-10.36,24.09-33.21,25.33-44.08A47.3,47.3,0,0,0,1288.07,0h-16.53c4.1,6.59,5.13,14.37,4.1,23.44-2.75,24.28-30.25,63.14-83.64,76.08-24.22,5.87-44,12.9-46,27.5-2.1,14.91,12.28,24.56,37.24,39.31,15.81,9.34,53.68,20.08,61.34,31.62,4,6-.5,15.93-6,22.05-9.91,11-20.55,19.08-48.3,25.05-31.83,6.86-70.21,6.19-104.26-1.24-22.2-4.85-47.69.79-58.07,19-7.7,13.52-15,37.33-11.88,56.81,3.21,20.09,7.35,32.31,20.13,46.25,12.28,13.39,26.09,24,43.55,26.86,19.9,3.25,62.9-2.07,86.52-12.89,47.91-22,82.68-51.52,103.15-70.77,38.71-36.4,62.14-75.39,139.42-50.1,26.48,8.67,46.68,22.61,52.76,37,9,21.3-2.52,43.64-15.45,70.22-15.25,31.36-48.6,73.1-28.44,98.06,23.23,28.76,77.88,19.83,130.51,21,51.09,1.12,107.28-2,131.25,26,11.46,13.36,25.28,47,32.94,59.57,12.67,20.81,24.63,40.48,49.41,54.43,26.51,14.94,64.91,23.46,122.4,23.46,13.71-1,25.56-2.07,35.81-3.31v-94C1919.11,552.43,1918.22,553.55,1917.3,554.64Z"/><path class="cls-2" d="M1854.12,78.55c-6.25.9,10.62-28.6,3.14-24.81-7.91,4-24,27.6-33.39,31.2-7.07,2.71,3.39-25.8-4.37-23.3-8.55,2.75-35.4,36.48-44.63,39-8.59,2.35,8.45-23.31-.58-21.14-8.32,2-42.68,31.85-51.26,33.73-7.66,1.67,15.77-25.16,8-23.58-6.7,1.36-44.62,31.13-51.36,32.43-9,1.74,16.11-24.89,7.11-23.25-7.57,1.38-49.28,31-56.74,32.38-7.24,1.28,25.34-24,18.27-22.72-6.88,1.21-39,27.52-60.09,30.09-72.66,8.8-129.77,23.81-135,38.67-3.82,10.79-.68,20,10.14,20.5,7.18.33,21-7.2,26.67-6,4,.82-11.78,13.74-7,14.27,6.44.71,19.9-12.87,26.22-13.12,3.1-.12-5.6,12.93-2.29,12.76,10.9-.53,21.7-1.08,24.08-.26,4.59,1.58-21.54,3.91-19.71,8.29,2,4.66,26.21,15.52,29.34,19.57,2.45,3.17-21.23-6.1-20.07-1.43.92,3.68,24.33,39.15,25.11,43.32,1.31,7-20.14-16.94-19.39-8.92.49,5.17,16.23,38.45,16.41,43.92.16,4.86-15.2-18.12-15.33-13.11a213.78,213.78,0,0,1-5.12,42.2c-1.07,4.65-26.33,20.68-27.78,25.22-.74,2.29,24-12.36,21.64-4.59-1.15,3.81-27.33,20.77-29,24.36-1.85,3.91,20.52-5.65,18.29-1.95-3.21,5.31-28.68,22.85-32.75,27.6-5,5.83,14.46-4.33,9.24,3.83-23,35.85-9.61,50.8,36.75,46.78,53-4.6,121.94-39.45,168.1-64.39,4.75-2.57,16.23-5.22,30.87,1.45,10.3,4.7,24.87,19.3,28,18.89,10.25-1.37-12.66-18.55-3.23-15.13,6,2.16,28.35,34.39,34,38,4.24,2.65-10.84-33.28-6.73-30.05,5.48,4.31,28.74,48.65,34,53.65,5.74,5.44-6.52-28.41-1-22.65,6,6.25,20.65,37,26.5,43,2.93,3-.16-26.93,2.5-24.78,18.61,15.05,22.12,76,57.78,37.48,43.4-46.87,0-454,0-454C1885.08,48.93,1863.19,77.24,1854.12,78.55Z"/><path d="M1110.82,956.61c-70.44-74.68-254.15-70.19-345.43-68.84-21.38.31-39.82,0-53.94-.19-14.3-.21-21.18-19.71,6.27-50.77,25-28.28,65.39-67.84,56.86-87.72-5.64-13.12-30.59-32.2-61-33.83-34.58-1.85-92.07-2.75-138.66-12.4-51.19-10.59-89.53-21.58-107.43-41.32-15.46-17-21-26-17.11-52.2,10.61-71.11-30.61-136.3-83-162.71-27.7-13.95-60-26.51-87.25-26.89-30.17-.42-53.77,6.59-75.72,28.54C171.13,481.52,120.76,501.8,76.52,496,59,493.73,27.4,478,0,454.91v29.27a138,138,0,0,0,78.54,37.67A150.48,150.48,0,0,0,98,523.1c39.45,0,79.84-15,111.06-41.55,3.5-3-5,31.36-1.71,28.1s18.83-43.58,23-46c4-2.37-4,27.49.68,25.89,5.27-1.8,23.3-34.95,29.41-35.76,5.46-.72-7,18.3-.91,18.38,5.38.07,29.12-18.87,34.73-18.15,4,.51-18.19,15-14.11,15.83,4.91,1,36.11-11.58,41.06-10.14s-24.12,10.74-19.05,12.69c6.29,2.41,46.86-2.36,53,.72,5.17,2.61-21.25,6.09-16.13,9.24,24.16,14.86,57.77,35.46,79.83,61,2.83,3.28-19.18-8-16.77-4.58s29.22,21.59,31.1,25.17c2.28,4.32-28-14.95-26.58-10.41,1.72,5.6,26.52,32.4,27.93,38.16,1.28,5.24-15.68-13.31-15.68-8.66,0,6.68,13.29,21.59,19.09,37,8.55,22.79,13.19,53.12,20.78,68,8.33,16.29,16.43,28.71,19.25,31.47,3.76,3.66-3.09-18.81,1.24-15.58,3.14,2.35,16.72,26.93,20.14,29.06,4.11,2.57-1.88-17.35,2.59-15.07,4.79,2.44,24.84,29.66,30,31.78,3.72,1.55-7.55-21.93-3.68-20.54,3.34,1.2,30.83,26.42,34.27,27.51,4.11,1.3-15.83-21.56-11.6-20.4,3.11.85,20.68,14.4,34.6,14.47,7.24,0-11.79-6.2-6.61-8.38,2.21-.94,14,2,15.94,2.42,45.24,8.66,57.22,3,93.16,4.92,30.2,1.62,55.88,1.85,59.32,12.15,3.36,10.08-21.38,31.76-24,37.83C722,802.78,743,788.11,741,791.69c-1.73,3-24.8,20.32-26.88,23.47-1.84,2.79,17.34-8.58,15.33-5.8-4.16,5.74-18.72,11.36-23,16.43-3.64,4.27,9.89-4,7.46,0-7.28,12.12-26.91,36.06-34.7,49.59-1.88,3.26-14.86,25.31-15.11,28.79-.38,5.33,12.83-8.18,14.14-5.94,2.26,3.84-13.85,15.37-8.95,16.73,3.55,1,27.35-7.73,32.77-7.57,4.46.13-12.77,11.35-6.79,11.17,4.68-.15,32.25-11.66,38-11.88s-15.37,12.06-8.61,11.88c4.38-.12,36.19-12.72,41.07-12.79s-12,12.65-6.9,12.59c6.3-.08,34.75-12.94,41.36-13,6.34,0-14.76,12.1-8.19,12.17,6.84.06,41.36-11.93,48.38-11.72C894,907.41,952,913.72,998.66,934.67c6.57,3-13.3,2.67-7.23,6.23,7.38,4.33,40.58,12.66,47.08,18,4.76,3.89-13,4.9-8.81,9.37,5.43,5.75,32.57,15.09,36.86,21.7,2.91,4.47-18.34-.52-16,4.34,2.5,5.1,28.61,20.06,30.54,25.58q9.38,26.83,9.63,60.13h40.12C1144.76,1037.75,1143.73,991.49,1110.82,956.61Z"/><path d="M259,201.62c-113.4-4.17-117.56,92.59-35.37,100.91C324.1,312.7,372.39,205.78,259,201.62Z"/><path class="cls-1" d="M244.93,226.54c-78.18-2.85-81,63.56-24.38,69.28C289.82,302.8,323.11,229.4,244.93,226.54Z"/><path d="M824.22,735.17c25.91,49.79,89.66,14.34,74.33-23.79C879.8,664.76,798.32,685.37,824.22,735.17Z"/><path class="cls-1" d="M843.92,731.55c17.87,34.33,61.64,10,51.05-16.28C882,683.14,826.06,697.23,843.92,731.55Z"/><path class="cls-3" d="M679.69,785.6c-10.53-1-30.43-6.82-51.57-7.6-6.92-.25-18.8,5.85-24.16,5.16-3.15-.41,10.38-6.44,7.33-6.79-4.31-.49-26,5.68-30.41,5.16-5.15-.61,12.52-5.31,7.4-5.95-4.89-.6-18.92,1.15-23.69.52-4.48-.59,10.27-6.45,6-7.06-4.53-.63-52.33,14.8-30.25,19.59,9.69,2.1,25.09,2.68,50.47,5.73,13.82,1.67,21.33-4.38,25.93-3.6,5.52.93-5.68,8.23-.27,8.57,6.89.44,26.65-8.81,33.12-9.11,5.18-.24-8,9.65-3.26,9.09,4.53-.54,11.11-7.28,15.21-7.46,11.94-.54-12.76,11.94,18.69,2.17C684.84,792.58,684.51,786.08,679.69,785.6Z"/><path class="cls-3" d="M1032.44,1006.62c-1.82-1.24,9-.06,7.18-1.59-2.52-2.08-15.15-4.06-16.86-6-1.53-1.72,11.89-.18,9.84-1.77-1.76-1.37-17.33-3.63-18.83-4.95-1.87-1.65,9.88-1.58,7.76-3.05s-17.92-3-19.72-4.46c-2.63-2.07,11.64-2.75,8.46-4.69-2.63-1.61-20-1.42-22.39-3-4.26-2.87,19.29-2.33,14.32-4.91-12.19-6.34-32.07-4-37.75-7.52-3.42-2.11,18.85-4.26,15-5.81-18.61-7.51-40-2.23-46.77-4.95-5.79-2.33,14.3-7.06,8.7-8.87-10.58-3.44-31.16,2.9-42.84-.52-11.1-3.24,18.45-6.89,10.41-8.87-13.15-3.25-35.25,3.95-42.16,2.73-10.59-1.88,12.75-10.23,5.8-10.41-7.44-.21-27,2.73-35.13,6.07-6.08,2.48-7.85,9.35-1.54,11.19,13.45,3.91,55.49,13.37,70.83,20.16,4.17,1.85-22.08,3-17.19,4.43,12.31,3.48,39.67,1.13,47.13,4.42,5.11,2.26-21.33,4.19-14.63,6.63,9,3.3,34,2.51,42.95,6.33s-18,2.39-12.72,5.08c8.63,4.39,19.79.66,29.65,5.44,5.61,2.72-10.63,5.68-7.6,7.11,5.86,2.77,13.88-1.45,27.5,3.6s-8.72,7.27-2.88,10.24c3.32,1.69,13.29-1.39,21.22.2,11.06,2.22,21.52,12.92,23.21,14.1,4.77,3.35,3-9.42.14-14.5C1039.49,1011.25,1036.57,1009.44,1032.44,1006.62Z"/><path class="cls-3" d="M876.67,713.68c-.88-3.32,5.38-8.24,1.27-8.36-2.47-.07-14.26,3.06-17.9,5.16-6.4,3.71-8.65,7.58-8.21,10.77.47,3.4,9,10,13.77,10.8,2.4.39.11-3.68,2.92-4.34,1.33-.32,7.45,1.92,9.83.58,2.15-1.22-1.16-3.6-.41-5.83.66-2,5.46-3.86,5.85-4.7C885,715.22,877.32,716.18,876.67,713.68Z"/><path class="cls-3" d="M1631.25,402.14c-9,.73-19.82,1.34-22.24-.73-4.29-3.66,10.65-13.48,4.07-12.71-8.85,1-28.06,18-35.78,19.36-6.39,1.14,5.31-14.26-.34-12.92-8.71,2.06-34.27,21-41.3,23.42-7.9,2.73,4.83-16.34-1.07-13.33-4.77,2.43-21,18.46-29.71,26.8a3.49,3.49,0,0,0,1.89,6c4.85.68,24.58-8.88,33.79-9,5.07-.09-6.94,7.91-1.62,7.91,19.74,0,59.49-9.6,93.83-29.9A2.61,2.61,0,0,0,1631.25,402.14Z"/><path class="cls-3" d="M1178.65,321.16c-4.55.22-10.6.56-16.54-.62-7.91-1.58-15.53-6.53-20.82-6.46-4.37.06,3.64,7.78-.38,7.23-9.72-1.32-16.48-8.07-22.88-8.13-5.28-.05,4.07,8.72-.77,8.78-7.54.08-14.36-3.09-20.57-2.84-6.38.25,6.41,5,1.8,5.29-6.22.39-19.17-1.29-26.82-2.4a1.91,1.91,0,0,0-1.44,3.39c3.56,2.82-8.44,3.47-3.49,5.59,2.4,1,21.3,3.81,24,4.65s-11.17,3-8.27,3.62c2.24.51,21.22-.37,23.54,0,3.15.51-8.16,3.85-4.9,4.12,23.13,1.93,62.84-5.4,79-18.65A2,2,0,0,0,1178.65,321.16Z"/><path class="cls-3" d="M1399.68.52c.08-.17.14-.34.21-.52h-2.59C1398.28,1,1399.17,1.62,1399.68.52Z"/><path class="cls-3" d="M1333.09,27.38c-1.46,4.29-4.4-9.42-6-5.55-2.07,5-2.86,27.37-5.14,31.68-2.48,4.72-2.46-14-5.12-9.95-3.39,5.09-9.52,32.67-13.06,36.71-26.64,30.43-55.59,33-55.59,33a75.67,75.67,0,0,0,43.64-5c6.68-2.79-2.57,14.7,3.56,10.44,5.25-3.66,26-28.9,30.78-33.36,5.4-5,1.36,14.75,6.18,9.09,4-4.7,17-34.72,20.58-39.65,4.38-6,1.67,21.74,5.41,15.75,4.53-7.25,10.69-24.88,16.1-40.81,4.28-12.63,8.09,10.36,10.25,5.88,3.48-7.2,6.09-22.56,7.81-35.63h-58.26a38.74,38.74,0,0,0-1.32,3.73C1332.12,6.31,1333.92,24.93,1333.09,27.38Z"/><path class="cls-3" d="M247.18,255.41c-3.29.88-4.75-7.67-9-8.21S226.76,252,222,252.47c-4.46.44-5.11-8.16-9.28-6.57C209,247.33,207.5,257,198.6,261.37c-22.34,11,19.85,30.14,47.24,9.94C264.26,257.72,261,251.73,247.18,255.41Z"/><path class="cls-2" d="M877,1010.25c-7-3.11,9.9,16.09,1.85,14.18-6.15-1.45-40.15-18.3-47-18.91-5.31-.48,16.62,15.13,10.91,15-6.11-.13-40.87-16.08-47.38-16-5.7.11,16.9,16.28,10.93,16.47-6.5.21-46.24-15.23-53-15-7.69.21,17.55,16,9.56,16-36.16-.07-75.13-3.39-114-18.94-16.43-6.58-57.91-8.42-77.33-4.63-8.91,1.74,4.89-12.22,0-12.26-10.61-.09-24.9,21.88-30.75,23.62-5.09,1.51,12.28-18.61,3.79-14.89s-27.84,24.13-32.67,26.25c-5.55,2.44,9.57-17.38,4.26-14.68-4.89,2.5-30.4,30.51-35,33.14-9.38,5.34,7.57-23.39-.47-18-6.64,4.46-18,27.46-29.76,36.69-12.55,9.84-22,17.72-26.74,21.7H939.63C931.12,1055.14,913.5,1026.43,877,1010.25Z"/><path class="cls-2" d="M276.77,723.17c25.74-10.58,146.79,62.07,124.8-4.65-1.65-5-7.14-16.81-10.27-27.86-1.07-3.8,17.26,15.17,17,11.85-.3-3.76-19-29.68-17.58-32,2.51-3.95,28.52,21.81,28.07,18.48-.55-4.1-25.92-31-28.53-36.25-7.93-15.88,29,15.36,28.52,9.76-.4-4.66-30.3-38.63-30.6-43.22-.4-6.08,27.31,23.48,27.09,17.74s-24.22-28.82-24.25-34c0-6,17.85,12.89,16.33,6.39-2.69-11.46-17.22-18.94-20.9-30.75-1.91-6.15-3.42-12.39-5.71-18.36-.86-2.26-1.77-4.49-2.75-6.69C364.31,523,360.77,501,311.4,489.5c-12.88-3-25.18-3.56-36.55-.15-36.33,10.89-84.22,60.7-100,70.84-3.7,2.38,5.42-17.15,1.68-14.22-6,4.69-17,18.71-20.71,21.07-5.45,3.45,14.31-30.67,9.67-28.22-5,2.63-20.38,30.56-23.44,32.71-6.13,4.3,9.32-29.72,2.46-23.39-4.32,4-15.42,25-19.34,28.31-6.93,5.94,17.56-43.29,10.37-37.45-16.88,13.71-22.41,45.67-31.69,51.43-6.08,3.78,13.78-46.83,7.31-43.65-5.91,2.9-27.47,48.75-43.64,61.45C50.64,621.45,26.2,622.12,0,618.38V742.16C81.93,752.43,194.42,757,276.77,723.17Z"/><path class="cls-3" d="M54.23,680.11c54.08-7.71,57.7-23.11,75.4-28.69,3.22-1-7.47,13.68-4.38,12.75,12.67-3.81,21.69-19.72,28.41-21,4.58-.85-15.21,23-10.75,21.32,7.12-2.62,18.43-21.9,24.38-25.1,5.55-3-9.16,20.86-4.45,17.76,3.13-2.06,15.49-21.27,19.56-22.86,3.43-1.35-9.91,20.49-7.33,18.32,6.67-5.63,27.76-36,32.16-41,5.11-5.81-1.48-14.8-8.33-11.22-45.6,23.85-11.68-6.92-24-2.42-5,1.84-18.22,18.72-22.74,20.34-5.68,2,6.3-15.94,0-13.94-3.55,1.13-17.35,20.27-21.1,21.37-3.09.9,5.11-14.09,1.9-13.21-5.37,1.45-22.27,18.74-28,20.07-4.27,1,11.65-11.92,7.21-11-4.64,1-29.63,15.73-34.44,16.56s6.8-7.77,1.76-7.07c-21.6,3-50.68,8.06-79.56,10.25v37.11A154.56,154.56,0,0,0,54.23,680.11Z"/><path class="cls-3" d="M617.25,1026.77c-9.08-2.93-18.89-4.06-35.73-.1-7.35,1.73-25.75,15-30.27,15.22-8.91.48,5.19-11.67-5-8.33-5.45,1.78-16.68,15.23-22.09,17.28-4.33,1.64,6.36-14.38,2.1-12.56-6,2.54-26.83,23-32.57,25.92-4.28,2.17,5.58-11.65,1.47-9.26-6.06,3.52-20,16.57-29.52,25.06H556a328.47,328.47,0,0,1,65.11-40.9C627.93,1035.86,624.43,1029.09,617.25,1026.77Z"/><path class="cls-3" d="M342.32,574.85c.95-5.21,20.69,10.35,20.34,5.63-.56-7.54-24-16.11-26.84-21.64-2.17-4.3,20.9,2.65,17.53-.87S324,545.2,319.59,542.09c-4-2.87,26.48,6.16,21.64,3.33-3.16-1.85-41.47-15.53-44.93-17.47-6.36-3.57-14.86-1.21-9.45,3.67,10.59,9.56,20.8,20.83,26.63,32.59,1.39,2.82-16-5.24-14.9-1.92,1.29,4,20.93,19.54,21.86,24.16.73,3.66-15-8.37-14.45-4.42.51,3.48,17.41,22.91,17.86,26.56.4,3.2-12.42-9-12-5.71,2.61,22.5,18.42,62.16,26.12,82.38,4.94,13,12.84,26.71,6-10.2-3.31-17.81-4.71-56.75,1.42-80.3,1-4,16.82,5.32,17.32,1.52C363.08,593.12,341.81,577.61,342.32,574.85Z"/></g><g id="Sang_4" data-name="Sang 4"><path d="M321,1026.67c8.39-6.63-4.51,33.4,2.94,27,7.25-6.24,13.81-37.43,20-43.33,1.9-1.82,1.94,24.07,3.72,22.29,4.56-4.57,5.32-27.65,9.9-31,2-1.44,3.46,14.54,8.67,12.38,8.36-3.45,9.9-19.14,23.45-29,18.9-13.8,7.5-33.18-22.05-33.46-15.61-.14-25.16-6.24-31.29-15.83-2.91-4.55,9.07-39.71,3.48-43.91-3.5-2.63-11,22.73-13.06,14.85-.93-3.46,13.71-36.1,10.11-40.25-3-3.41-12.76,20.36-13.28,15.79-.59-5,7.66-40.82,2-48.18-2.75-3.55-7.64,19.88-11,18.72-1.9-.66-.18-26.94-7.48-31.49-2.7-1.68-4.67,19.9-7.61,17.18-5.28-4.88-11.92-9.81-20.31-12.63-19.13-6.43-50.29-5.92-58.63-5.68s7.82-15.39-1.83-13.54c-7.67,1.47-27.09,20-35.45,22.32-6.43,1.74,4.16-20.89-2.6-18.78-7.62,2.37-23.52,28.5-31.47,31.22-9.74,3.33,8.33-26.69-1.77-23.05-9.3,3.35-27.61,31.52-37.07,34.94C102.66,856,125.65,820,118,822.67c-10.42,3.66-32.93,37-61.75,49.28-18.73,8-37.95,13-56.27,16.26V1080H282C295.46,1062.24,310.72,1034.76,321,1026.67Z"/></g></svg>